<svg xmlns="http://www.w3.org/2000/svg" viewBox="0 0 1337 1033"><defs><style>.cls-1{fill:#fcfdfe;}.cls-2{fill:#39caf9;}.cls-3{fill:#1255db;}.cls-4{fill:#43cdf9;}.cls-5{fill:#3acaf9;}</style></defs><g id="Layer_2" data-name="Layer 2"><g id="Layer_1-2" data-name="Layer 1"><g id="Layer_2-2" data-name="Layer 2"><g id="Layer_1-2-2" data-name="Layer 1-2"><path class="cls-1" d="M0,1033V0H1337V1033ZM1136.78,488.31l1.92.59-2.2-.25c1.76-8,1.18-17.92,5.74-23.8,11.3-14.55,9.4-26.13-2.68-38.35-3.42-3.46-7.49-8.38-7.56-12.68-.58-38.1-.34-76.21-.34-113.9l59.67-6.41C1105,222,1024.23,154.8,942.9,88.33c-5.79-4.73-15.83-6-23.91-6-61.64-.17-123.3,0-184.94.84-35,.5-70,2.59-112.55,4.26,85.19,75.4,163.74,145.12,242.71,214.36,5.18,4.55,13.66,7.87,20.47,7.65,63.27-2,126.62-3.59,189.73-8.13,46-3.3,47-5.17,45.42,41-1.1,32.65,10.26,67.43-18.9,96.76-5.25,5.29,8.87,30.05,14.39,45.7C1120.16,498.49,1129.57,487.29,1136.78,488.31ZM1004.6,428.78c0,66.91-.48,132.65.17,198.37.43,43.12-18.43,64.58-60.79,64.71q-280.46.84-560.91.77c-16.8,0-34-3.55-50.28-8.31-22.42-6.57-31.72-23-31.49-46.79,1-99.23.63-198.47,1.85-297.69.14-11,6.84-22,10.87-32.86s8.46-21.4,14.16-35.7c-38.5,9.3-54.86,34.19-55.34,75.22-1,91.53-.79,183.1-3.77,274.57-2,62.62,27.69,97,90.66,97.34,66.07.35,132.14.41,198.14.59H590.7c-1.29,19.26-2.35,35-3.54,52.8-25.47,0-48.62,1.75-71.39-.46-26.56-2.57-37.43,12.51-47.25,32.66H839.11c-11.2-22-23.07-35.09-48.2-32.71-24.39,2.32-49.17.51-73.91.51V720.37c9.27-.54,16.79-1.32,24.31-1.35,68.56-.28,137.14-1.27,205.69-.31,46.75.66,91.91-26.27,87.59-86-3.07-42.56-.59-85.52-.59-128.31V424.35ZM624.86,257.08l2.82-7.84c-16.54-7.61-32.48-17.14-49.73-22.5-67.59-21-136.69-18.19-206.19-12.2-21.32,1.84-26.69,9.45-26.62,29.8.5,125.86-.29,251.72-.55,377.58,0,8.18.76,16.36,1.11,23.31,3.87,1.33,4.66,1.83,5.46,1.84q295.64,2.55,591.28,5.3c17.72.19,18.85-8.86,18.83-22.44-.09-59.07.51-118.15.64-177.23,0-6.48-1.42-13-2.36-20.93l-31.71,1.79c0,54.45-.55,107.33.3,160.18.29,17.89-3.47,26.18-24,25.67-75.4-1.85-150.84-1.94-226.26-2.9-4.8-.06-9.57-2-15.88-3.35V448.1c-.12-28.25.19-56.51-.21-84.76-.36-25.92-1.48-51.83-2.26-77.74l-13.53.55V616H382.77c-1.48-3.4-2.79-4.89-2.79-6.38.11-116.43,0-232.85,1.35-349.26.07-6.14,11.27-16.44,18.43-17.56,70.94-11.14,141.56-12.05,210.53,12.53C614.79,256.93,620,256.54,624.86,257.08Zm68.62-75.41C687.21,192.83,678.42,211.29,667,228c-8.79,12.82-6.57,22.8.09,35.1,24.27,44.77,57.74,80.6,102.32,105.23,82.18,45.4,170.2,45.61,259.66,31,5.67-.92,12.55-6.55,15.2-11.82,12.22-24.25,23.13-49.15,36.42-78-65.4,7.87-127,14.68-188.47,23-21.7,2.94-37.76,0-54.73-16.89C791.4,269.82,742.48,226.86,693.48,181.67Z"/><path class="cls-2" d="M1136.77,488.32c-7.2-1-16.61,10.17-21.45-3.56-5.52-15.65-19.64-40.41-14.39-45.7,29.16-29.33,17.8-64.11,18.9-96.76,1.56-46.13.54-44.26-45.42-41-63.11,4.54-126.46,6.09-189.73,8.13-6.81.22-15.29-3.1-20.47-7.65-79-69.24-157.52-139-242.71-214.36C664,85.79,699,83.7,734.05,83.24c61.64-.88,123.3-1,184.94-.84,8.08,0,18.12,1.24,23.91,6,81.33,66.47,162.08,133.65,248.43,205.18L1131.66,300c0,37.69-.24,75.8.34,113.9.07,4.3,4.14,9.22,7.56,12.68,12.08,12.22,14,23.8,2.68,38.35-4.56,5.88-4,15.75-5.74,23.8Z"/><path class="cls-3" d="M1004.6,428.82l29.4-4.43v80c0,42.79-2.48,85.75.59,128.31,4.32,59.75-40.84,86.68-87.59,86-68.56-1-137.15,0-205.69.31-7.52,0-15,.81-24.31,1.35V771.8c24.74,0,49.52,1.81,73.91-.51C816,768.91,828,782,839.11,804H468.52c9.82-20.15,20.69-35.23,47.25-32.66,22.77,2.21,45.92.46,71.39.46,1.19-17.79,2.25-33.54,3.54-52.8H557.87c-66.07-.18-132.09-.24-198.14-.59-63-.34-92.7-34.72-90.66-97.34,3-91.47,2.72-183,3.77-274.57.48-41,16.84-65.92,55.34-75.22C322.48,285.58,318,296.19,314,307s-10.73,21.85-10.87,32.86c-1.22,99.22-.89,198.46-1.85,297.69-.23,23.78,9.07,40.22,31.49,46.79,16.22,4.76,33.48,8.29,50.28,8.31q280.45.35,560.91-.77c42.36-.13,61.22-21.59,60.79-64.71C1004.12,561.47,1004.6,495.73,1004.6,428.82Z"/><path class="cls-4" d="M624.86,257.08c-4.87-.54-10.07-.15-14.57-1.75-69-24.58-139.59-23.67-210.53-12.53-7.16,1.12-18.36,11.42-18.43,17.56C380,376.77,380.09,493.24,380,609.62c0,1.49,1.31,3,2.79,6.38H646V286.15l13.54-.55c.78,25.91,1.9,51.82,2.26,77.74.4,28.25.09,56.51.2,84.76V613.16c6.35,1.4,11.12,3.29,15.89,3.35,75.42,1,150.86,1,226.26,2.9,20.49.51,24.25-7.78,24-25.67-.85-52.85-.3-105.73-.3-160.18l31.71-1.79c.94,8,2.37,14.45,2.36,20.93-.13,59.08-.73,118.16-.64,177.23,0,13.58-1.11,22.63-18.83,22.44q-295.63-3.15-591.28-5.3c-.8,0-1.59-.51-5.46-1.84-.35-7-1.13-15.13-1.11-23.31.26-125.86,1-251.72.55-377.58-.07-20.35,5.3-28,26.62-29.8,69.5-6,138.6-8.77,206.19,12.2,17.25,5.36,33.19,14.89,49.73,22.5Z"/><path class="cls-5" d="M693.48,181.67c49,45.19,97.92,88.15,144,134,17,16.87,33,19.83,54.73,16.89,61.43-8.32,123.07-15.13,188.47-23-13.29,28.82-24.2,53.72-36.42,78-2.65,5.27-9.53,10.9-15.2,11.82-89.46,14.58-177.48,14.37-259.66-31-44.58-24.63-78-60.46-102.32-105.23-6.66-12.3-8.88-22.28-.09-35.1C678.42,211.29,687.21,192.83,693.48,181.67Z"/><path class="cls-2" d="M1136.5,488.65l2.2.25-1.93-.58Z"/></g></g></g></g></svg>